<mxfile host="app.diagrams.net" modified="2024-03-28T10:56:29.415Z" agent="Mozilla/5.0 (Windows NT 10.0; Win64; x64) AppleWebKit/537.36 (KHTML, like Gecko) Chrome/123.0.0.0 Safari/537.36" etag="dE66NeYrsGpZug6MAKat" version="24.0.7" type="device">
  <diagram id="C5RBs43oDa-KdzZeNtuy" name="Page-1">
    <mxGraphModel dx="1877" dy="557" grid="1" gridSize="10" guides="1" tooltips="1" connect="1" arrows="1" fold="1" page="1" pageScale="1" pageWidth="827" pageHeight="1169" math="0" shadow="0">
      <root>
        <mxCell id="WIyWlLk6GJQsqaUBKTNV-0" />
        <mxCell id="WIyWlLk6GJQsqaUBKTNV-1" parent="WIyWlLk6GJQsqaUBKTNV-0" />
        <mxCell id="ECXhXhMrHAmCJnMxelFC-0" value="Product" style="swimlane;fontStyle=1;align=center;verticalAlign=top;childLayout=stackLayout;horizontal=1;startSize=26;horizontalStack=0;resizeParent=1;resizeParentMax=0;resizeLast=0;collapsible=1;marginBottom=0;whiteSpace=wrap;html=1;" parent="WIyWlLk6GJQsqaUBKTNV-1" vertex="1">
          <mxGeometry x="430" y="120" width="180" height="138" as="geometry" />
        </mxCell>
        <mxCell id="ECXhXhMrHAmCJnMxelFC-1" value="+ id : int" style="text;strokeColor=none;fillColor=none;align=left;verticalAlign=top;spacingLeft=4;spacingRight=4;overflow=hidden;rotatable=0;points=[[0,0.5],[1,0.5]];portConstraint=eastwest;whiteSpace=wrap;html=1;" parent="ECXhXhMrHAmCJnMxelFC-0" vertex="1">
          <mxGeometry y="26" width="180" height="26" as="geometry" />
        </mxCell>
        <mxCell id="ECXhXhMrHAmCJnMxelFC-16" value="+ name: string" style="text;strokeColor=none;fillColor=none;align=left;verticalAlign=top;spacingLeft=4;spacingRight=4;overflow=hidden;rotatable=0;points=[[0,0.5],[1,0.5]];portConstraint=eastwest;whiteSpace=wrap;html=1;" parent="ECXhXhMrHAmCJnMxelFC-0" vertex="1">
          <mxGeometry y="52" width="180" height="26" as="geometry" />
        </mxCell>
        <mxCell id="ECXhXhMrHAmCJnMxelFC-17" value="+ Leverancier : Leverancier[]" style="text;strokeColor=none;fillColor=none;align=left;verticalAlign=top;spacingLeft=4;spacingRight=4;overflow=hidden;rotatable=0;points=[[0,0.5],[1,0.5]];portConstraint=eastwest;whiteSpace=wrap;html=1;" parent="ECXhXhMrHAmCJnMxelFC-0" vertex="1">
          <mxGeometry y="78" width="180" height="26" as="geometry" />
        </mxCell>
        <mxCell id="ECXhXhMrHAmCJnMxelFC-2" value="" style="line;strokeWidth=1;fillColor=none;align=left;verticalAlign=middle;spacingTop=-1;spacingLeft=3;spacingRight=3;rotatable=0;labelPosition=right;points=[];portConstraint=eastwest;strokeColor=inherit;" parent="ECXhXhMrHAmCJnMxelFC-0" vertex="1">
          <mxGeometry y="104" width="180" height="8" as="geometry" />
        </mxCell>
        <mxCell id="ECXhXhMrHAmCJnMxelFC-3" value="+ Bestel(aantal, klant) : void" style="text;strokeColor=none;fillColor=none;align=left;verticalAlign=top;spacingLeft=4;spacingRight=4;overflow=hidden;rotatable=0;points=[[0,0.5],[1,0.5]];portConstraint=eastwest;whiteSpace=wrap;html=1;" parent="ECXhXhMrHAmCJnMxelFC-0" vertex="1">
          <mxGeometry y="112" width="180" height="26" as="geometry" />
        </mxCell>
        <mxCell id="ECXhXhMrHAmCJnMxelFC-4" value="Leverancier" style="swimlane;fontStyle=1;align=center;verticalAlign=top;childLayout=stackLayout;horizontal=1;startSize=26;horizontalStack=0;resizeParent=1;resizeParentMax=0;resizeLast=0;collapsible=1;marginBottom=0;whiteSpace=wrap;html=1;" parent="WIyWlLk6GJQsqaUBKTNV-1" vertex="1">
          <mxGeometry x="170" y="120" width="160" height="144" as="geometry" />
        </mxCell>
        <mxCell id="ECXhXhMrHAmCJnMxelFC-5" value="+ id: int" style="text;strokeColor=none;fillColor=none;align=left;verticalAlign=top;spacingLeft=4;spacingRight=4;overflow=hidden;rotatable=0;points=[[0,0.5],[1,0.5]];portConstraint=eastwest;whiteSpace=wrap;html=1;" parent="ECXhXhMrHAmCJnMxelFC-4" vertex="1">
          <mxGeometry y="26" width="160" height="26" as="geometry" />
        </mxCell>
        <mxCell id="ECXhXhMrHAmCJnMxelFC-7" value="+ name string&lt;div&gt;=&lt;/div&gt;" style="text;strokeColor=none;fillColor=none;align=left;verticalAlign=top;spacingLeft=4;spacingRight=4;overflow=hidden;rotatable=0;points=[[0,0.5],[1,0.5]];portConstraint=eastwest;whiteSpace=wrap;html=1;" parent="ECXhXhMrHAmCJnMxelFC-4" vertex="1">
          <mxGeometry y="52" width="160" height="26" as="geometry" />
        </mxCell>
        <mxCell id="ECXhXhMrHAmCJnMxelFC-33" value="+ Producten: Product[]" style="text;strokeColor=none;fillColor=none;align=left;verticalAlign=top;spacingLeft=4;spacingRight=4;overflow=hidden;rotatable=0;points=[[0,0.5],[1,0.5]];portConstraint=eastwest;whiteSpace=wrap;html=1;" parent="ECXhXhMrHAmCJnMxelFC-4" vertex="1">
          <mxGeometry y="78" width="160" height="26" as="geometry" />
        </mxCell>
        <mxCell id="ECXhXhMrHAmCJnMxelFC-6" value="" style="line;strokeWidth=1;fillColor=none;align=left;verticalAlign=middle;spacingTop=-1;spacingLeft=3;spacingRight=3;rotatable=0;labelPosition=right;points=[];portConstraint=eastwest;strokeColor=inherit;" parent="ECXhXhMrHAmCJnMxelFC-4" vertex="1">
          <mxGeometry y="104" width="160" height="14" as="geometry" />
        </mxCell>
        <mxCell id="ECXhXhMrHAmCJnMxelFC-23" value="+" style="text;strokeColor=none;fillColor=none;align=left;verticalAlign=top;spacingLeft=4;spacingRight=4;overflow=hidden;rotatable=0;points=[[0,0.5],[1,0.5]];portConstraint=eastwest;whiteSpace=wrap;html=1;" parent="ECXhXhMrHAmCJnMxelFC-4" vertex="1">
          <mxGeometry y="118" width="160" height="26" as="geometry" />
        </mxCell>
        <mxCell id="ECXhXhMrHAmCJnMxelFC-24" style="edgeStyle=orthogonalEdgeStyle;rounded=0;orthogonalLoop=1;jettySize=auto;html=1;entryX=1;entryY=0.5;entryDx=0;entryDy=0;endArrow=none;endFill=0;" parent="WIyWlLk6GJQsqaUBKTNV-1" source="ECXhXhMrHAmCJnMxelFC-16" target="ECXhXhMrHAmCJnMxelFC-7" edge="1">
          <mxGeometry relative="1" as="geometry" />
        </mxCell>
        <mxCell id="ECXhXhMrHAmCJnMxelFC-26" value="1 ... n" style="text;html=1;align=center;verticalAlign=middle;resizable=0;points=[];autosize=1;strokeColor=none;fillColor=none;" parent="WIyWlLk6GJQsqaUBKTNV-1" vertex="1">
          <mxGeometry x="320" y="158" width="50" height="30" as="geometry" />
        </mxCell>
        <mxCell id="ECXhXhMrHAmCJnMxelFC-27" value="Classname" style="swimlane;fontStyle=1;align=center;verticalAlign=top;childLayout=stackLayout;horizontal=1;startSize=26;horizontalStack=0;resizeParent=1;resizeParentMax=0;resizeLast=0;collapsible=1;marginBottom=0;whiteSpace=wrap;html=1;" parent="WIyWlLk6GJQsqaUBKTNV-1" vertex="1">
          <mxGeometry x="-80" y="120" width="160" height="86" as="geometry" />
        </mxCell>
        <mxCell id="ECXhXhMrHAmCJnMxelFC-28" value="+ field: type" style="text;strokeColor=none;fillColor=none;align=left;verticalAlign=top;spacingLeft=4;spacingRight=4;overflow=hidden;rotatable=0;points=[[0,0.5],[1,0.5]];portConstraint=eastwest;whiteSpace=wrap;html=1;" parent="ECXhXhMrHAmCJnMxelFC-27" vertex="1">
          <mxGeometry y="26" width="160" height="26" as="geometry" />
        </mxCell>
        <mxCell id="ECXhXhMrHAmCJnMxelFC-29" value="" style="line;strokeWidth=1;fillColor=none;align=left;verticalAlign=middle;spacingTop=-1;spacingLeft=3;spacingRight=3;rotatable=0;labelPosition=right;points=[];portConstraint=eastwest;strokeColor=inherit;" parent="ECXhXhMrHAmCJnMxelFC-27" vertex="1">
          <mxGeometry y="52" width="160" height="8" as="geometry" />
        </mxCell>
        <mxCell id="ECXhXhMrHAmCJnMxelFC-30" value="+ method(type): type" style="text;strokeColor=none;fillColor=none;align=left;verticalAlign=top;spacingLeft=4;spacingRight=4;overflow=hidden;rotatable=0;points=[[0,0.5],[1,0.5]];portConstraint=eastwest;whiteSpace=wrap;html=1;" parent="ECXhXhMrHAmCJnMxelFC-27" vertex="1">
          <mxGeometry y="60" width="160" height="26" as="geometry" />
        </mxCell>
        <mxCell id="ECXhXhMrHAmCJnMxelFC-31" style="edgeStyle=orthogonalEdgeStyle;rounded=0;orthogonalLoop=1;jettySize=auto;html=1;entryX=1;entryY=0.5;entryDx=0;entryDy=0;endArrow=none;endFill=0;" parent="WIyWlLk6GJQsqaUBKTNV-1" target="ECXhXhMrHAmCJnMxelFC-28" edge="1">
          <mxGeometry relative="1" as="geometry">
            <mxPoint x="170" y="211" as="sourcePoint" />
          </mxGeometry>
        </mxCell>
        <mxCell id="ECXhXhMrHAmCJnMxelFC-32" value="&lt;span style=&quot;font-weight: normal;&quot;&gt;0 ... n&lt;/span&gt;" style="text;align=center;fontStyle=1;verticalAlign=middle;spacingLeft=3;spacingRight=3;strokeColor=none;rotatable=0;points=[[0,0.5],[1,0.5]];portConstraint=eastwest;html=1;" parent="WIyWlLk6GJQsqaUBKTNV-1" vertex="1">
          <mxGeometry x="370" y="158" width="80" height="26" as="geometry" />
        </mxCell>
        <mxCell id="ECXhXhMrHAmCJnMxelFC-34" value="Webshop" style="swimlane;fontStyle=1;align=center;verticalAlign=top;childLayout=stackLayout;horizontal=1;startSize=26;horizontalStack=0;resizeParent=1;resizeParentMax=0;resizeLast=0;collapsible=1;marginBottom=0;whiteSpace=wrap;html=1;" parent="WIyWlLk6GJQsqaUBKTNV-1" vertex="1">
          <mxGeometry x="290" y="499" width="160" height="86" as="geometry" />
        </mxCell>
        <mxCell id="ECXhXhMrHAmCJnMxelFC-35" value="+ naam: string" style="text;strokeColor=none;fillColor=none;align=left;verticalAlign=top;spacingLeft=4;spacingRight=4;overflow=hidden;rotatable=0;points=[[0,0.5],[1,0.5]];portConstraint=eastwest;whiteSpace=wrap;html=1;" parent="ECXhXhMrHAmCJnMxelFC-34" vertex="1">
          <mxGeometry y="26" width="160" height="26" as="geometry" />
        </mxCell>
        <mxCell id="ECXhXhMrHAmCJnMxelFC-46" value="+ id: int" style="text;strokeColor=none;fillColor=none;align=left;verticalAlign=top;spacingLeft=4;spacingRight=4;overflow=hidden;rotatable=0;points=[[0,0.5],[1,0.5]];portConstraint=eastwest;whiteSpace=wrap;html=1;" parent="ECXhXhMrHAmCJnMxelFC-34" vertex="1">
          <mxGeometry y="52" width="160" height="26" as="geometry" />
        </mxCell>
        <mxCell id="ECXhXhMrHAmCJnMxelFC-36" value="" style="line;strokeWidth=1;fillColor=none;align=left;verticalAlign=middle;spacingTop=-1;spacingLeft=3;spacingRight=3;rotatable=0;labelPosition=right;points=[];portConstraint=eastwest;strokeColor=inherit;" parent="ECXhXhMrHAmCJnMxelFC-34" vertex="1">
          <mxGeometry y="78" width="160" height="8" as="geometry" />
        </mxCell>
        <mxCell id="ECXhXhMrHAmCJnMxelFC-38" value="Klant" style="swimlane;fontStyle=1;align=center;verticalAlign=top;childLayout=stackLayout;horizontal=1;startSize=26;horizontalStack=0;resizeParent=1;resizeParentMax=0;resizeLast=0;collapsible=1;marginBottom=0;whiteSpace=wrap;html=1;" parent="WIyWlLk6GJQsqaUBKTNV-1" vertex="1">
          <mxGeometry x="120" y="620" width="160" height="198" as="geometry" />
        </mxCell>
        <mxCell id="ECXhXhMrHAmCJnMxelFC-39" value="+ Naam : string[]" style="text;strokeColor=none;fillColor=none;align=left;verticalAlign=top;spacingLeft=4;spacingRight=4;overflow=hidden;rotatable=0;points=[[0,0.5],[1,0.5]];portConstraint=eastwest;whiteSpace=wrap;html=1;" parent="ECXhXhMrHAmCJnMxelFC-38" vertex="1">
          <mxGeometry y="26" width="160" height="26" as="geometry" />
        </mxCell>
        <mxCell id="ECXhXhMrHAmCJnMxelFC-50" value="+ ID : int[]" style="text;strokeColor=none;fillColor=none;align=left;verticalAlign=top;spacingLeft=4;spacingRight=4;overflow=hidden;rotatable=0;points=[[0,0.5],[1,0.5]];portConstraint=eastwest;whiteSpace=wrap;html=1;" parent="ECXhXhMrHAmCJnMxelFC-38" vertex="1">
          <mxGeometry y="52" width="160" height="26" as="geometry" />
        </mxCell>
        <mxCell id="ECXhXhMrHAmCJnMxelFC-40" value="" style="line;strokeWidth=1;fillColor=none;align=left;verticalAlign=middle;spacingTop=-1;spacingLeft=3;spacingRight=3;rotatable=0;labelPosition=right;points=[];portConstraint=eastwest;strokeColor=inherit;" parent="ECXhXhMrHAmCJnMxelFC-38" vertex="1">
          <mxGeometry y="78" width="160" height="8" as="geometry" />
        </mxCell>
        <mxCell id="ECXhXhMrHAmCJnMxelFC-41" value="+ Bestelling : Aantal_&lt;br&gt;int" style="text;strokeColor=none;fillColor=none;align=left;verticalAlign=top;spacingLeft=4;spacingRight=4;overflow=hidden;rotatable=0;points=[[0,0.5],[1,0.5]];portConstraint=eastwest;whiteSpace=wrap;html=1;" parent="ECXhXhMrHAmCJnMxelFC-38" vertex="1">
          <mxGeometry y="86" width="160" height="34" as="geometry" />
        </mxCell>
        <mxCell id="dGgULGwJ-oxIaYLsy8u--2" value="+ ID : int[]" style="text;strokeColor=none;fillColor=none;align=left;verticalAlign=top;spacingLeft=4;spacingRight=4;overflow=hidden;rotatable=0;points=[[0,0.5],[1,0.5]];portConstraint=eastwest;whiteSpace=wrap;html=1;" vertex="1" parent="ECXhXhMrHAmCJnMxelFC-38">
          <mxGeometry y="120" width="160" height="26" as="geometry" />
        </mxCell>
        <mxCell id="dGgULGwJ-oxIaYLsy8u--5" value="Factuur: string&amp;nbsp;" style="text;strokeColor=none;fillColor=none;align=left;verticalAlign=top;spacingLeft=4;spacingRight=4;overflow=hidden;rotatable=0;points=[[0,0.5],[1,0.5]];portConstraint=eastwest;whiteSpace=wrap;html=1;" vertex="1" parent="ECXhXhMrHAmCJnMxelFC-38">
          <mxGeometry y="146" width="160" height="26" as="geometry" />
        </mxCell>
        <mxCell id="dGgULGwJ-oxIaYLsy8u--4" value="Datum: date" style="text;strokeColor=none;fillColor=none;align=left;verticalAlign=top;spacingLeft=4;spacingRight=4;overflow=hidden;rotatable=0;points=[[0,0.5],[1,0.5]];portConstraint=eastwest;whiteSpace=wrap;html=1;" vertex="1" parent="ECXhXhMrHAmCJnMxelFC-38">
          <mxGeometry y="172" width="160" height="26" as="geometry" />
        </mxCell>
        <mxCell id="ECXhXhMrHAmCJnMxelFC-49" style="edgeStyle=orthogonalEdgeStyle;rounded=0;orthogonalLoop=1;jettySize=auto;html=1;endArrow=block;endFill=0;" parent="WIyWlLk6GJQsqaUBKTNV-1" source="ECXhXhMrHAmCJnMxelFC-42" edge="1">
          <mxGeometry relative="1" as="geometry">
            <mxPoint x="380" y="582" as="targetPoint" />
            <Array as="points">
              <mxPoint x="380" y="740" />
            </Array>
          </mxGeometry>
        </mxCell>
        <mxCell id="ECXhXhMrHAmCJnMxelFC-42" value="Product" style="swimlane;fontStyle=1;align=center;verticalAlign=top;childLayout=stackLayout;horizontal=1;startSize=26;horizontalStack=0;resizeParent=1;resizeParentMax=0;resizeLast=0;collapsible=1;marginBottom=0;whiteSpace=wrap;html=1;" parent="WIyWlLk6GJQsqaUBKTNV-1" vertex="1">
          <mxGeometry x="400" y="620" width="190" height="190" as="geometry" />
        </mxCell>
        <mxCell id="ECXhXhMrHAmCJnMxelFC-52" value="+ Naam : string" style="text;strokeColor=none;fillColor=none;align=left;verticalAlign=top;spacingLeft=4;spacingRight=4;overflow=hidden;rotatable=0;points=[[0,0.5],[1,0.5]];portConstraint=eastwest;whiteSpace=wrap;html=1;" parent="ECXhXhMrHAmCJnMxelFC-42" vertex="1">
          <mxGeometry y="26" width="190" height="26" as="geometry" />
        </mxCell>
        <mxCell id="ECXhXhMrHAmCJnMxelFC-43" value="+ Aantal: Int[]" style="text;strokeColor=none;fillColor=none;align=left;verticalAlign=top;spacingLeft=4;spacingRight=4;overflow=hidden;rotatable=0;points=[[0,0.5],[1,0.5]];portConstraint=eastwest;whiteSpace=wrap;html=1;" parent="ECXhXhMrHAmCJnMxelFC-42" vertex="1">
          <mxGeometry y="52" width="190" height="26" as="geometry" />
        </mxCell>
        <mxCell id="ECXhXhMrHAmCJnMxelFC-51" value="+ Vooraad: Int[]" style="text;strokeColor=none;fillColor=none;align=left;verticalAlign=top;spacingLeft=4;spacingRight=4;overflow=hidden;rotatable=0;points=[[0,0.5],[1,0.5]];portConstraint=eastwest;whiteSpace=wrap;html=1;" parent="ECXhXhMrHAmCJnMxelFC-42" vertex="1">
          <mxGeometry y="78" width="190" height="26" as="geometry" />
        </mxCell>
        <mxCell id="dGgULGwJ-oxIaYLsy8u--1" value="+ Leverancier: string[]" style="text;strokeColor=none;fillColor=none;align=left;verticalAlign=top;spacingLeft=4;spacingRight=4;overflow=hidden;rotatable=0;points=[[0,0.5],[1,0.5]];portConstraint=eastwest;whiteSpace=wrap;html=1;" vertex="1" parent="ECXhXhMrHAmCJnMxelFC-42">
          <mxGeometry y="104" width="190" height="26" as="geometry" />
        </mxCell>
        <mxCell id="ECXhXhMrHAmCJnMxelFC-44" value="" style="line;strokeWidth=1;fillColor=none;align=left;verticalAlign=middle;spacingTop=-1;spacingLeft=3;spacingRight=3;rotatable=0;labelPosition=right;points=[];portConstraint=eastwest;strokeColor=inherit;" parent="ECXhXhMrHAmCJnMxelFC-42" vertex="1">
          <mxGeometry y="130" width="190" height="8" as="geometry" />
        </mxCell>
        <mxCell id="ECXhXhMrHAmCJnMxelFC-37" value="+ delete() : void" style="text;strokeColor=none;fillColor=none;align=left;verticalAlign=top;spacingLeft=4;spacingRight=4;overflow=hidden;rotatable=0;points=[[0,0.5],[1,0.5]];portConstraint=eastwest;whiteSpace=wrap;html=1;" parent="ECXhXhMrHAmCJnMxelFC-42" vertex="1">
          <mxGeometry y="138" width="190" height="26" as="geometry" />
        </mxCell>
        <mxCell id="ECXhXhMrHAmCJnMxelFC-47" value="+ Toevoegen(name) : void" style="text;strokeColor=none;fillColor=none;align=left;verticalAlign=top;spacingLeft=4;spacingRight=4;overflow=hidden;rotatable=0;points=[[0,0.5],[1,0.5]];portConstraint=eastwest;whiteSpace=wrap;html=1;" parent="ECXhXhMrHAmCJnMxelFC-42" vertex="1">
          <mxGeometry y="164" width="190" height="26" as="geometry" />
        </mxCell>
        <mxCell id="ECXhXhMrHAmCJnMxelFC-48" style="edgeStyle=orthogonalEdgeStyle;rounded=0;orthogonalLoop=1;jettySize=auto;html=1;endArrow=block;endFill=0;" parent="WIyWlLk6GJQsqaUBKTNV-1" source="ECXhXhMrHAmCJnMxelFC-38" edge="1">
          <mxGeometry relative="1" as="geometry">
            <mxPoint x="340" y="580" as="targetPoint" />
          </mxGeometry>
        </mxCell>
      </root>
    </mxGraphModel>
  </diagram>
</mxfile>
